<svg width="26" height="26" viewBox="0 0 26 26" fill="none" xmlns="http://www.w3.org/2000/svg">
  <path d="M10.8218 19.4777C15.6023 19.4777 19.4777 15.6023 19.4777 10.8218C19.4777 6.04136 15.6023 2.16602 10.8218 2.16602C6.04136 2.16602 2.16602 6.04136 2.16602 10.8218C2.16602 15.6023 6.04136 19.4777 10.8218 19.4777Z" fill="#114B35" stroke="#114B35" stroke-width="1.5" stroke-linecap="round" stroke-linejoin="round" />
  <path d="M14.0625 21.5354C15.0375 22.9112 16.63 23.8104 18.45 23.8104C21.4075 23.8104 23.8125 21.4054 23.8125 18.4479C23.8125 16.6495 22.9242 15.057 21.57 14.082" stroke="#7ED775" stroke-width="1.5" stroke-linecap="round" stroke-linejoin="round" />
  <path d="M8.66602 12.3508C8.66602 13.1849 9.31602 13.8674 10.1068 13.8674H11.7318C12.4252 13.8674 12.9885 13.2716 12.9885 12.5458C12.9885 11.7549 12.6418 11.4733 12.1327 11.2891L9.53268 10.3791C9.01268 10.1949 8.66602 9.91328 8.66602 9.12245C8.66602 8.39661 9.22935 7.80078 9.92268 7.80078H11.5477C12.3493 7.81161 12.9993 8.48328 12.9993 9.31745" stroke="white" stroke-width="1.5" stroke-linecap="round" stroke-linejoin="round" />
  <path d="M10.834 13.9199V14.7216" stroke="white" stroke-width="1.5" stroke-linecap="round" stroke-linejoin="round" />
  <path d="M10.834 6.94531V7.79031" stroke="white" stroke-width="1.5" stroke-linecap="round" stroke-linejoin="round" />
</svg>