<svg width="17" height="17" viewBox="0 0 17 17" fill="none" xmlns="http://www.w3.org/2000/svg">
<path d="M6.868 7.531C6.9105 7.2505 7.004 7.004 7.123 6.7915C7.242 6.579 7.412 6.4005 7.6245 6.2645C7.8285 6.137 8.0835 6.0775 8.398 6.069C8.5935 6.0775 8.772 6.1115 8.9335 6.1795C9.1035 6.256 9.2565 6.358 9.3755 6.4855C9.4945 6.613 9.588 6.766 9.6645 6.936C9.741 7.106 9.775 7.293 9.7835 7.48H11.305C11.288 7.0805 11.2115 6.715 11.067 6.3835C10.9225 6.052 10.727 5.763 10.472 5.525C10.217 5.287 9.911 5.1 9.554 4.964C9.197 4.828 8.806 4.7685 8.3725 4.7685C7.82 4.7685 7.3355 4.862 6.9275 5.0575C6.5195 5.253 6.1795 5.508 5.9075 5.8395C5.6355 6.171 5.4315 6.5535 5.304 6.9955C5.1765 7.4375 5.1 7.8965 5.1 8.3895V8.619C5.1 9.112 5.168 9.571 5.2955 10.013C5.423 10.455 5.627 10.8375 5.899 11.1605C6.171 11.4835 6.511 11.747 6.919 11.934C7.327 12.121 7.8115 12.223 8.364 12.223C8.7635 12.223 9.1375 12.155 9.486 12.0275C9.8345 11.9 10.1405 11.7215 10.404 11.492C10.6675 11.2625 10.88 10.999 11.033 10.693C11.186 10.387 11.2795 10.064 11.288 9.7155H9.7665C9.758 9.894 9.7155 10.0555 9.639 10.2085C9.5625 10.3615 9.4605 10.489 9.333 10.5995C9.2055 10.71 9.061 10.795 8.891 10.8545C8.7295 10.914 8.5595 10.931 8.381 10.9395C8.075 10.931 7.82 10.8715 7.6245 10.744C7.412 10.608 7.242 10.4295 7.123 10.217C7.004 10.0045 6.9105 9.7495 6.868 9.469C6.8255 9.1885 6.8 8.8995 6.8 8.619V8.3895C6.8 8.092 6.8255 7.8115 6.868 7.531ZM8.5 0C3.808 0 0 3.808 0 8.5C0 13.192 3.808 17 8.5 17C13.192 17 17 13.192 17 8.5C17 3.808 13.192 0 8.5 0ZM8.5 15.3C4.7515 15.3 1.7 12.2485 1.7 8.5C1.7 4.7515 4.7515 1.7 8.5 1.7C12.2485 1.7 15.3 4.7515 15.3 8.5C15.3 12.2485 12.2485 15.3 8.5 15.3Z" fill="#EBDFF7"/>
</svg>
