<svg width="26" height="26" viewBox="0 0 26 26" fill="none" xmlns="http://www.w3.org/2000/svg">
  <path d="M17.333 5.91602H18.2432C18.7657 5.91617 19.2537 6.1641 19.5703 6.5752L19.6953 6.76172L20.2012 7.64648C18.6097 7.83526 17.374 9.19094 17.374 10.833V14.083C17.3742 15.854 18.812 17.291 20.583 17.291H23.291C23.3086 17.291 23.3175 17.297 23.3223 17.3018C23.327 17.3066 23.333 17.3157 23.333 17.333V18.416C23.333 19.7814 22.3441 20.906 21.042 21.124C20.7775 19.3153 19.2125 17.9162 17.333 17.916C15.4389 17.916 13.8634 19.3369 13.6172 21.166H12.3818C12.1357 19.3369 10.5602 17.916 8.66602 17.916C6.78633 17.916 5.21946 19.3151 4.95508 21.124C3.65374 20.9054 2.66602 19.7809 2.66602 18.416V16.249C2.66619 15.9296 2.92959 15.6662 3.24902 15.666H13.541C15.312 15.666 16.7488 14.229 16.749 12.458V6.49902C16.7492 6.17948 17.0134 5.91602 17.333 5.91602Z" fill="#114B35" stroke="#114B35" />
  <path d="M8.66699 20C9.58732 20.0002 10.333 20.7466 10.333 21.667C10.3328 22.5872 9.58721 23.3328 8.66699 23.333C7.74663 23.333 7.00018 22.5873 7 21.667C7 20.7465 7.74652 20 8.66699 20Z" fill="#7ED775" stroke="#7ED775" />
  <path d="M17.333 20C18.2533 20.0002 18.999 20.7466 18.999 21.667C18.9988 22.5872 18.2532 23.3328 17.333 23.333C16.4126 23.333 15.6662 22.5873 15.666 21.667C15.666 20.7465 16.4125 20 17.333 20Z" fill="#7ED775" stroke="#7ED775" />
  <path d="M23.8333 13.5742V15.1667H20.5833C19.9875 15.1667 19.5 14.6792 19.5 14.0833V10.8333C19.5 10.2375 19.9875 9.75 20.5833 9.75H21.9808L23.5517 12.5017C23.7358 12.8267 23.8333 13.195 23.8333 13.5742Z" fill="#7ED775" />
  <path d="M14.1713 2.16602H6.16547C4.2263 2.16602 2.6013 3.55268 2.2438 5.39435H6.97797C7.38964 5.39435 7.71464 5.73018 7.71464 6.14185C7.71464 6.55352 7.38964 6.87852 6.97797 6.87852H2.16797V8.37352H4.98464C5.3963 8.37352 5.73214 8.70935 5.73214 9.12102C5.73214 9.53268 5.3963 9.85768 4.98464 9.85768H2.16797V11.3527H3.00214C3.4138 11.3527 3.74964 11.6885 3.74964 12.1002C3.74964 12.5118 3.4138 12.8368 3.00214 12.8368H2.16797V13.086C2.16797 13.6818 2.65547 14.1693 3.2513 14.1693H13.1638C14.2688 14.1693 15.168 13.2702 15.168 12.1652V3.16268C15.168 2.61018 14.7238 2.16602 14.1713 2.16602Z" fill="#114B35" />
  <path d="M2.24315 5.39453H2.08065H1.01898C0.607318 5.39453 0.271484 5.73036 0.271484 6.14203C0.271484 6.5537 0.607318 6.8787 1.01898 6.8787H2.00482H2.16732V6.1637C2.16732 5.9037 2.19982 5.6437 2.24315 5.39453Z" fill="#114B35" />
  <path d="M2.00482 8.37305H1.01898C0.607318 8.37305 0.271484 8.70888 0.271484 9.12055C0.271484 9.53221 0.607318 9.85721 1.01898 9.85721H2.00482H2.16732V8.37305H2.00482Z" fill="#114B35" />
  <path d="M2.00482 11.3535H1.01898C0.607318 11.3535 0.271484 11.6893 0.271484 12.101C0.271484 12.5127 0.607318 12.8377 1.01898 12.8377H2.00482H2.16732V11.3535H2.00482Z" fill="#114B35" />
</svg>