<svg width="107" height="107" viewBox="0 0 107 107" fill="none" xmlns="http://www.w3.org/2000/svg">
<path d="M74.4423 3.06584C73.1518 3.69524 72.4037 4.70188 66.2921 14.0374L63.4052 18.4496L72.3471 24.1599C77.2589 27.2946 81.3732 29.8676 81.4884 29.8662C81.6967 29.868 89.8887 17.1778 90.6046 15.7314C91.4285 14.0693 91.1401 11.7049 89.9489 10.3801C88.7966 9.09319 79.31 3.06775 77.8695 2.70484C76.9181 2.4687 75.3129 2.63379 74.4423 3.06584Z" fill="#114B35"/>
<path d="M50.6286 38.209C45.1952 46.4989 36.6304 59.6074 31.6021 67.3411L22.4523 81.3906L31.2621 87.1676C36.1138 90.3459 40.1455 92.9288 40.2339 92.91C40.3223 92.8911 42.7539 89.2691 45.6276 84.8673C48.5014 80.4656 53.5259 72.7866 56.7854 67.8097C60.0448 62.8329 65.1173 55.0898 68.0564 50.5971C70.9954 46.1044 74.571 40.6597 76.0136 38.5038L78.6185 34.5752L69.684 28.8633C64.7707 25.7213 60.6948 23.1478 60.6327 23.1456C60.5617 23.1376 56.062 29.9192 50.6286 38.209Z" fill="#114B35"/>
<path d="M20.8067 83.9671C20.7595 84.3238 20.1856 88.8205 19.5216 94.0142C18.2348 104.162 18.1683 104.861 18.4904 105.216C19.0989 105.903 19.5801 105.993 20.3355 105.562C20.7066 105.352 22.621 104.289 24.5896 103.192C32.931 98.5718 38.4621 95.4364 38.5754 95.2813C38.6523 95.1725 34.617 92.5364 23.5528 85.4688C21.7075 84.2911 20.8269 83.8088 20.8067 83.9671Z" fill="#114B35"/>
</svg>
