<svg width="139" height="37" viewBox="0 0 139 37" fill="none" xmlns="http://www.w3.org/2000/svg">
<g clip-path="url(#clip0_105_6877)">
<path d="M11.4262 36.6237H2.23167C2.09806 36.6237 2.03125 36.5401 2.03125 36.3727L2.13146 1.05546C2.13146 0.921568 2.19827 0.854644 2.33189 0.854644H12.2028C14.1236 0.854644 15.8689 1.3232 17.4389 2.2603C18.9755 3.1974 20.1864 4.44412 21.0716 6.0004C21.9568 7.5399 22.3994 9.21333 22.3994 11.0206C22.3994 12.4932 22.0653 13.8654 21.3973 15.1372C20.7292 16.409 19.9359 17.4381 19.0172 18.2246C20.0026 19.2119 20.771 20.3582 21.3221 21.6633C21.8733 22.9686 22.1489 24.3407 22.1489 25.7801C22.1489 27.7714 21.6729 29.587 20.7208 31.2269C19.7521 32.8668 18.4577 34.1805 16.8376 35.1679C15.2175 36.1386 13.4137 36.6237 11.4262 36.6237ZM12.2028 6.95423H8.29451V15.0368H12.2028C13.3886 15.0368 14.349 14.6184 15.0839 13.7817C15.8188 12.9283 16.1863 12.0079 16.1863 11.0206C16.1863 9.93289 15.7937 8.98742 15.0088 8.18417C14.2237 7.36422 13.2884 6.95423 12.2028 6.95423ZM11.4262 21.2619H8.29451L8.24441 30.3483H11.4262C12.6621 30.3483 13.7227 29.8964 14.6079 28.993C15.4931 28.0892 15.9357 27.0185 15.9357 25.7801C15.9357 24.5416 15.4931 23.4789 14.6079 22.5924C13.7227 21.7054 12.6621 21.2619 11.4262 21.2619ZM45.1726 36.6237H39.3604C39.2267 36.6237 39.1599 36.5401 39.1599 36.3727L39.2601 1.05546C39.2601 0.921568 39.327 0.854644 39.4605 0.854644H49.8325C51.6866 0.854644 53.3901 1.30647 54.9433 2.21011C56.4966 3.11375 57.7327 4.32696 58.6511 5.84977C59.5868 7.37259 60.0541 9.09617 60.0541 11.0206C60.0541 12.2757 59.862 13.4136 59.4781 14.4343C59.0937 15.4551 58.6427 16.3169 58.1249 17.0198C57.624 17.7226 57.1645 18.2413 56.7471 18.576C58.6012 20.6343 59.528 23.0522 59.528 25.8301L59.5784 36.3727C59.5784 36.5401 59.4949 36.6237 59.3279 36.6237H53.5155C53.3817 36.6237 53.315 36.5737 53.315 36.4732V25.8301C53.315 24.5921 52.8807 23.521 52.0122 22.6172C51.1437 21.7138 50.0746 21.2619 48.8054 21.2619H45.4232L45.3731 36.3727C45.3731 36.5401 45.3063 36.6237 45.1726 36.6237ZM49.8325 7.00442H45.4232V15.087H49.8325C50.8848 15.087 51.82 14.6937 52.6386 13.9072C53.4736 13.1207 53.891 12.1585 53.891 11.0206C53.891 9.93289 53.4904 8.99579 52.6885 8.20926C51.8867 7.40605 50.9347 7.00442 49.8325 7.00442ZM72.4056 37.1256C70.585 37.1256 68.9063 36.6574 67.3698 35.7199C65.8497 34.7829 64.622 33.5365 63.6868 31.9798C62.7684 30.4072 62.3089 28.6832 62.3089 26.8092L62.3593 10.5186C62.3593 8.61089 62.8183 6.89562 63.7372 5.37285C64.6388 3.83331 65.8581 2.60337 67.3946 1.683C68.9315 0.745896 70.6014 0.277344 72.4056 0.277344C74.276 0.277344 75.9547 0.737529 77.4413 1.6579C78.9441 2.57827 80.1466 3.81658 81.0487 5.37285C81.9672 6.9124 82.4266 8.62762 82.4266 10.5186L82.4765 26.8092C82.4765 28.6832 82.0259 30.3988 81.1238 31.955C80.2054 33.5281 78.9861 34.7829 77.466 35.7199C75.9463 36.6574 74.2592 37.1256 72.4056 37.1256ZM72.4056 30.9259C73.4411 30.9259 74.3427 30.5072 75.1109 29.6707C75.8796 28.8173 76.2635 27.8635 76.2635 26.8092L76.2136 10.5186C76.2136 9.38064 75.8544 8.41844 75.1361 7.63196C74.4178 6.84543 73.5078 6.45222 72.4056 6.45222C71.3533 6.45222 70.4512 6.83707 69.6997 7.60687C68.9478 8.37662 68.5723 9.34718 68.5723 10.5186V26.8092C68.5723 27.9303 68.9478 28.901 69.6997 29.7207C70.4512 30.524 71.3533 30.9259 72.4056 30.9259ZM96.3061 36.6237H90.5189C90.3683 36.6237 90.2932 36.5401 90.2932 36.3727V7.05461H83.6291C83.4621 7.05461 83.3786 6.97096 83.3786 6.80361L83.4285 1.05546C83.4285 0.921568 83.4957 0.854644 83.6291 0.854644H103.12C103.304 0.854644 103.396 0.921568 103.396 1.05546V6.80361C103.396 6.97096 103.329 7.05461 103.195 7.05461H96.4563L96.5067 36.3727C96.5067 36.5401 96.4395 36.6237 96.3061 36.6237ZM111.964 36.6237H106.152C105.985 36.6237 105.901 36.5401 105.901 36.3727L105.952 1.05546C105.952 0.921568 106.018 0.854644 106.152 0.854644H111.914C112.048 0.854644 112.114 0.921568 112.114 1.05546L112.165 36.3727C112.165 36.5401 112.098 36.6237 111.964 36.6237ZM122.687 36.6237H116.875C116.741 36.6237 116.674 36.5401 116.674 36.3727L116.775 1.10565C116.775 0.938345 116.841 0.854644 116.975 0.854644H122.737C122.87 0.854644 122.938 0.938345 122.938 1.10565V13.2797L130.98 1.05546C131.113 0.921568 131.238 0.854644 131.355 0.854644H137.243C137.393 0.854644 137.426 0.921568 137.343 1.05546L128.474 15.2376L138.42 36.4228C138.504 36.5569 138.42 36.6237 138.17 36.6237H131.906C131.739 36.6237 131.639 36.5569 131.606 36.4228L124.666 21.3119L122.887 24.1234V36.3727C122.887 36.5401 122.821 36.6237 122.687 36.6237Z" fill="#114B35"/>
<path d="M27.4797 0.728675C27.2511 1.10923 27.2264 1.49637 27.2117 4.9477L27.2051 6.57861L30.4804 6.55557C32.2792 6.54239 33.7772 6.51767 33.8067 6.4979C33.861 6.46332 33.8511 1.79126 33.7936 1.29541C33.7278 0.725404 33.2559 0.160347 32.7248 0.0170148C32.2102 -0.122999 28.7408 -0.0900518 28.3067 0.0581874C28.0206 0.157029 27.6326 0.470051 27.4797 0.728675Z" fill="#114B35"/>
<path d="M27.2143 13.857C27.1995 16.9228 27.1831 21.7664 27.1798 24.6195L27.1699 29.8055L30.4222 29.8219C32.2128 29.8303 33.691 29.8219 33.7108 29.8023C33.7305 29.7826 33.7519 28.4334 33.7568 26.8071C33.7617 25.1812 33.7732 22.3426 33.7814 20.5026C33.7897 18.6625 33.8028 15.7993 33.8094 14.1387C33.816 12.4781 33.8275 10.4634 33.839 9.66107L33.8538 8.20312L30.5801 8.22453C28.7796 8.23607 27.2916 8.25421 27.2752 8.26407C27.2554 8.27397 27.2291 10.7912 27.2143 13.857Z" fill="#114B35"/>
<path d="M27.1768 30.7521C27.2245 30.8526 27.8312 32.1163 28.5317 33.5758C29.903 36.426 30.0033 36.6186 30.1463 36.6564C30.4193 36.7322 30.559 36.6747 30.6823 36.4359C30.7432 36.319 31.0605 35.7208 31.3861 35.1049C32.7705 32.5018 33.6765 30.7573 33.6798 30.6979C33.6815 30.6568 32.1934 30.6516 28.1404 30.6797C27.4645 30.6848 27.1554 30.7077 27.1768 30.7521Z" fill="#114B35"/>
</g>
<defs>
<clipPath id="clip0_105_6877">
<rect width="139" height="37" fill="white"/>
</clipPath>
</defs>
</svg>
